<svg xmlns="http://www.w3.org/2000/svg" version="1.1" xmlns:xlink="http://www.w3.org/1999/xlink" xmlns:svgjs="http://svgjs.dev/svgjs" width="1980" height="1060" preserveAspectRatio="none" viewBox="0 0 1980 1060"><g mask="url(&quot;#SvgjsMask1209&quot;)" fill="none"><rect width="1980" height="1060" x="0" y="0" fill="rgba(163, 190, 219, 1)"></rect><path d="M 0,401 C 79.2,333.6 237.6,49.6 396,64 C 554.4,78.4 633.6,435.8 792,473 C 950.4,510.2 1029.6,268 1188,250 C 1346.4,232 1425.6,413 1584,383 C 1742.4,353 1900.8,156.6 1980,100L1980 1060L0 1060z" fill="rgba(35, 158, 170, 1)"></path><path d="M 0,881 C 132,815.8 396,521.2 660,555 C 924,588.8 1056,1008.8 1320,1050 C 1584,1091.2 1848,818.8 1980,761L1980 1060L0 1060z" fill="rgba(103, 135, 169, 1)"></path></g><defs><mask id="SvgjsMask1209"><rect width="1980" height="1060" fill="#ffffff"></rect></mask></defs></svg>